# xmcd
#
# Track frame offsets: 
#        150
#        13818
#        25501
#        39134
#        51793
#        65547
#        77083
#        86657
#        99982
#        113694
#        127235
#        137590
#        153288
#        163360
#        174389
#        185518
#        201803
#        213553
#        225346
#        235247
#        246539
#        263901
#
# Disc length: 3673 seconds
#
# Revision: 0
# Processed by: cddbd v1.5.2PL0 Copyright (c) Steve Scherf et al.
# Submitted via: ExactAudioCopy v1.3
#
DISCID=280e5716
DTITLE=V.A. - More Original Country Stars On CD_64 Hits_CD1
DYEAR=2017
DGENRE=Country
TTITLE0=Golden Ring
TTITLE1=Fourteen Carat Mind
TTITLE2=Heartaches By The Number
TTITLE3=Brothers Of A Bottle
TTITLE4=A Church A Courtroom And Goodbye
TTITLE5=Carolyn
TTITLE6=A Dime At A Time
TTITLE7=My Heart's Bouquet
TTITLE8=One Run For The Roses
TTITLE9=Roots Of My Raising
TTITLE10=Sweethearts In Heaven
TTITLE11=Daddy's Girl
TTITLE12=What A Woman In Love Won't Do
TTITLE13=Stop The World
TTITLE14=Fallen Star
TTITLE15=I Didn't Every Chance I Had
TTITLE16=Congratulations
TTITLE17=I Miss You Already (And You're Not Even Gone)
TTITLE18=Deep Water
TTITLE19=Let Me Be The One
TTITLE20=Thinkin' Out Loud
TTITLE21=Linda On My Mind
EXTD=
EXTT0=
EXTT1=
EXTT2=
EXTT3=
EXTT4=
EXTT5=
EXTT6=
EXTT7=
EXTT8=
EXTT9=
EXTT10=
EXTT11=
EXTT12=
EXTT13=
EXTT14=
EXTT15=
EXTT16=
EXTT17=
EXTT18=
EXTT19=
EXTT20=
EXTT21=
PLAYORDER=
